<svg width="439" height="128" viewBox="0 0 439 128" fill="none" xmlns="http://www.w3.org/2000/svg">
<g clip-path="url(#clip0_1194_4681)">
<mask id="mask0_1194_4681" style="mask-type:luminance" maskUnits="userSpaceOnUse" x="0" y="0" width="439" height="128">
<path d="M438.81 0H0V127.73H438.81V0Z" fill="white"/>
</mask>
<g mask="url(#mask0_1194_4681)">
<path d="M149.861 75.3996C149.861 85.4096 143.431 89.6396 135.041 89.6396C126.651 89.6396 120.221 85.4596 120.221 76.1496C120.221 66.1396 126.651 61.9096 135.041 61.9096C143.431 61.9096 149.861 66.0896 149.861 75.3996ZM140.561 75.6796C140.561 71.3096 138.971 67.7796 135.041 67.7796C131.321 67.7796 129.521 70.2696 129.521 75.8596C129.521 80.2296 131.111 83.7596 135.041 83.7596C138.761 83.7596 140.561 81.2196 140.561 75.6796ZM179.921 62.3796V89.1696H171.471V85.5496H171.361C169.611 88.3196 166.471 89.6396 162.651 89.6396C157.231 89.6396 153.041 86.7696 153.041 80.5196V62.3796H162.071V78.8296C162.071 82.4496 163.341 83.7196 166.271 83.7196C168.871 83.7196 170.891 82.3096 170.891 78.8296V62.3796H179.921ZM193.731 81.7896C193.731 83.2496 194.261 83.9996 195.851 83.9996C196.061 83.9996 196.431 83.9996 196.751 83.9096V89.1696C195.741 89.4496 194.151 89.6396 192.711 89.6396C188.141 89.6396 184.691 88.1796 184.691 83.1096V51.5696H193.721V81.7896H193.731ZM225.231 62.3796V89.1696H216.781V85.5496H216.671C214.921 88.3196 211.781 89.6396 207.961 89.6396C202.541 89.6396 198.351 86.7696 198.351 80.5196V62.3796H207.381V78.8296C207.381 82.4496 208.651 83.7196 211.581 83.7196C214.181 83.7196 216.201 82.3096 216.201 78.8296V62.3796H225.231ZM239.041 81.7896C239.041 83.2496 239.571 83.9996 241.161 83.9996C241.371 83.9996 241.741 83.9996 242.061 83.9096V89.1696C241.051 89.4496 239.461 89.6396 238.021 89.6396C233.451 89.6396 230.001 88.1796 230.001 83.1096V51.5696H239.031V81.7896H239.041ZM268.731 80.3296C268.731 82.0196 269.421 82.8196 270.801 82.8196C271.281 82.8196 271.441 82.8196 271.541 82.7696V88.4096C269.841 88.9696 268.511 89.1596 266.711 89.1596C263.261 89.1596 261.661 88.1296 260.921 86.1096C259.111 88.5096 256.301 89.6296 252.421 89.6296C246.151 89.6296 242.331 86.6696 242.331 81.6396C242.331 76.0896 247.381 73.1296 255.401 73.1296C256.571 73.1296 258.161 73.2196 259.651 73.4596V71.8596C259.651 68.6196 258.271 67.1096 255.831 67.1096C253.391 67.1096 251.951 68.4696 251.371 71.4796L243.671 70.2096C245.161 64.8096 249.671 61.8896 256.471 61.8896C264.071 61.8896 268.741 65.4096 268.741 71.4796V80.3196L268.731 80.3296ZM259.651 78.6396C258.641 78.4096 257.211 78.2596 255.881 78.2596C253.121 78.2596 251.371 79.4296 251.371 81.4596C251.371 83.0596 252.751 84.2296 255.031 84.2296C258.111 84.2296 259.651 82.5396 259.651 78.6396ZM283.501 54.8596C283.501 57.7296 281.111 59.5096 278.241 59.5096C275.371 59.5096 273.141 57.8696 273.141 54.8596C273.141 51.8496 275.371 50.3496 278.241 50.3496C281.111 50.3496 283.501 51.9496 283.501 54.8596ZM282.761 89.1696H273.731V62.3796H282.761V89.1696ZM296.141 65.9996C297.891 63.2296 301.031 61.9096 304.851 61.9096C310.271 61.9096 314.461 64.7796 314.461 71.0296V89.1696H305.431V72.7196C305.431 69.0996 304.161 67.8296 301.231 67.8296C298.631 67.8296 296.611 69.2396 296.611 72.7196V89.1696H287.581V62.3796H296.031V65.9996H296.141ZM344.741 78.1296H326.791C327.321 82.5896 329.341 84.2396 332.051 84.2396C334.071 84.2396 335.401 83.0196 336.031 80.7596L343.941 82.8696C341.391 88.2696 337.091 89.6396 331.941 89.6396C322.801 89.6396 317.651 84.8496 317.651 76.1996C317.651 66.6096 323.441 61.9096 331.191 61.9096C340.861 61.9096 344.731 67.3596 344.731 74.0396V78.1296H344.741ZM336.351 72.7696C336.301 69.0996 334.281 67.2696 331.681 67.2696C329.451 67.2696 327.431 68.4896 326.851 72.7696H336.361H336.351ZM356.481 65.9996C358.231 63.2296 361.371 61.9096 365.191 61.9096C370.611 61.9096 374.801 64.7796 374.801 71.0296V89.1696H365.771V72.7196C365.771 69.0996 364.501 67.8296 361.571 67.8296C358.971 67.8296 356.951 69.2396 356.951 72.7196V89.1696H347.921V62.3796H356.371V65.9996H356.481Z" fill="url(#paint0_linear_1194_4681)"/>
<path d="M79.8702 30.2592V57.0492H71.4202V53.4292H71.3102C69.5602 56.1992 66.4202 57.5192 62.6002 57.5192C57.1802 57.5192 52.9902 54.6492 52.9902 48.3992V30.2592H62.0202V46.7092C62.0202 50.3292 63.2902 51.5992 66.2202 51.5992C68.8202 51.5992 70.8402 50.1892 70.8402 46.7092V30.2592H79.8702ZM101.86 41.2592L113.65 57.0492H102.81L95.9002 46.7992L93.6702 48.8692V57.0492H84.6402V19.4492H93.6702V36.0392C93.6702 38.9492 93.3502 40.8792 92.8702 42.7592H93.1402C94.1502 40.8292 95.3202 39.0492 97.8102 36.0892L102.75 30.2592H113.64L101.85 41.2592H101.86ZM132.45 41.2592L144.24 57.0492H133.4L126.49 46.7992L124.26 48.8692V57.0492H115.23V19.4492H124.26V36.0392C124.26 38.9492 123.94 40.8792 123.46 42.7592H123.73C124.74 40.8292 125.91 39.0492 128.4 36.0892L133.34 30.2592H144.23L132.44 41.2592H132.45ZM169.84 48.2192C169.84 49.9092 170.53 50.7092 171.91 50.7092C172.39 50.7092 172.55 50.7092 172.65 50.6592V56.2992C170.95 56.8592 169.62 57.0492 167.82 57.0492C164.37 57.0492 162.77 56.0192 162.03 53.9992C160.22 56.3992 157.41 57.5192 153.53 57.5192C147.26 57.5192 143.44 54.5592 143.44 49.5292C143.44 43.9792 148.49 41.0192 156.51 41.0192C157.68 41.0192 159.27 41.1092 160.76 41.3492V39.7492C160.76 36.5092 159.38 34.9992 156.94 34.9992C154.5 34.9992 153.06 36.3592 152.48 39.3692L144.78 38.0992C146.27 32.6992 150.78 29.7792 157.58 29.7792C165.18 29.7792 169.85 33.2992 169.85 39.3692V48.2092L169.84 48.2192ZM160.76 46.5292C159.75 46.2992 158.32 46.1492 156.99 46.1492C154.23 46.1492 152.48 47.3192 152.48 49.3492C152.48 50.9492 153.86 52.1192 156.14 52.1192C159.22 52.1192 160.76 50.4292 160.76 46.5292ZM188.59 45.5892H173.72V39.0092H188.59V45.5892Z" fill="url(#paint1_linear_1194_4681)"/>
<path d="M32.4191 29.9007C32.2891 31.9607 32.0191 33.7807 31.6891 35.8307H31.8891C33.2391 33.9107 34.7891 31.8907 36.3791 30.1507L45.1191 20.8307L56.0991 21.5507L40.8091 35.8107L53.7491 58.1407L42.8691 57.4307L34.4991 41.6207L31.4691 44.4407L30.6691 56.6407L21.7891 56.0607L24.1791 19.4707L33.0591 20.0507L32.4191 29.9007Z" fill="url(#paint2_linear_1194_4681)"/>
<path d="M98.8205 69.6105C99.0305 71.6705 99.0705 73.5105 99.0905 75.5805L99.2805 75.5605C100.251 73.4305 101.391 71.1905 102.611 69.2205L109.381 58.6205L119.901 57.5605L107.721 74.0905L123.621 94.0305L113.191 95.0805L102.681 80.8305L100.271 84.1005L101.501 96.2605L92.9905 97.1205L89.3105 60.6405L97.8205 59.7805L98.8105 69.6005L98.8205 69.6105Z" fill="url(#paint3_linear_1194_4681)"/>
</g>
</g>
<defs>
<linearGradient id="paint0_linear_1194_4681" x1="118.89" y1="67.9744" x2="424.47" y2="67.9744" gradientUnits="userSpaceOnUse">
<stop stop-color="#FFF200"/>
<stop offset="1" stop-color="#CA427C"/>
</linearGradient>
<linearGradient id="paint1_linear_1194_4681" x1="50.0694" y1="35.854" x2="355.649" y2="35.854" gradientUnits="userSpaceOnUse">
<stop stop-color="#FFF200"/>
<stop offset="1" stop-color="#CA427C"/>
</linearGradient>
<linearGradient id="paint2_linear_1194_4681" x1="19.4575" y1="37.4796" x2="169.136" y2="47.29" gradientUnits="userSpaceOnUse">
<stop stop-color="#FFF200"/>
<stop offset="0.42" stop-color="#FFF200"/>
<stop offset="1" stop-color="#CA427C"/>
</linearGradient>
<linearGradient id="paint3_linear_1194_4681" x1="86.9393" y1="78.9648" x2="236.185" y2="63.9365" gradientUnits="userSpaceOnUse">
<stop stop-color="#FFF200"/>
<stop offset="0.48" stop-color="#FFF200"/>
<stop offset="1" stop-color="#CA427C"/>
</linearGradient>
<clipPath id="clip0_1194_4681">
<rect width="438.81" height="127.73" fill="white"/>
</clipPath>
</defs>
</svg>
