<svg width="340" height="340" viewBox="0 0 340 340" fill="none" xmlns="http://www.w3.org/2000/svg">
<rect width="340" height="340" fill="url(#paint0_linear_1184_4626)"/>
<path d="M163.421 182.427V181.441C163.44 178.055 163.739 175.356 164.318 173.344C164.917 171.332 165.785 169.707 166.924 168.469C168.063 167.23 169.434 166.108 171.036 165.102C172.232 164.328 173.304 163.526 174.249 162.694C175.195 161.862 175.948 160.943 176.508 159.937C177.068 158.911 177.347 157.77 177.347 156.512C177.347 155.177 177.029 154.007 176.392 153.001C175.755 151.995 174.896 151.221 173.815 150.679C172.754 150.138 171.576 149.867 170.283 149.867C169.028 149.867 167.841 150.147 166.722 150.708C165.602 151.25 164.685 152.063 163.971 153.146C163.257 154.21 162.871 155.535 162.813 157.122H151C151.097 153.252 152.023 150.06 153.78 147.545C155.536 145.011 157.862 143.124 160.757 141.886C163.653 140.629 166.847 140 170.341 140C174.182 140 177.579 140.638 180.532 141.915C183.486 143.173 185.802 145.001 187.481 147.4C189.16 149.799 190 152.691 190 156.077C190 158.341 189.624 160.353 188.871 162.113C188.137 163.854 187.105 165.402 185.773 166.756C184.441 168.091 182.868 169.301 181.053 170.384C179.529 171.293 178.274 172.241 177.29 173.228C176.324 174.215 175.601 175.356 175.118 176.652C174.655 177.948 174.414 179.545 174.394 181.441V182.427H163.421ZM169.154 201C167.223 201 165.573 200.323 164.203 198.969C162.852 197.595 162.186 195.951 162.205 194.035C162.186 192.139 162.852 190.514 164.203 189.16C165.573 187.806 167.223 187.128 169.154 187.128C170.987 187.128 172.599 187.806 173.989 189.16C175.379 190.514 176.083 192.139 176.102 194.035C176.083 195.312 175.745 196.483 175.089 197.547C174.452 198.591 173.612 199.433 172.57 200.071C171.528 200.69 170.389 201 169.154 201Z" fill="white" fill-opacity="0.33"/>
<defs>
<linearGradient id="paint0_linear_1184_4626" x1="0" y1="0" x2="340" y2="340" gradientUnits="userSpaceOnUse">
<stop stop-color="#3F3F3F"/>
<stop offset="1" stop-color="#242424"/>
</linearGradient>
</defs>
</svg>
